<svg xmlns="http://www.w3.org/2000/svg" xmlns:xlink="http://www.w3.org/1999/xlink" width="2000" zoomAndPan="magnify" viewBox="0 0 1500 1499.999933" height="2000" preserveAspectRatio="xMidYMid meet" version="1.0"><defs><clipPath id="6f64c75f74"><path d="M 179.300781 431 L 1320.800781 431 L 1320.800781 1256 L 179.300781 1256 Z M 179.300781 431 " clip-rule="nonzero"/></clipPath><clipPath id="2f5bc32d64"><path d="M 467 0.0390625 L 1141.695312 0.0390625 L 1141.695312 200 L 467 200 Z M 467 0.0390625 " clip-rule="nonzero"/></clipPath><clipPath id="3aac429fb2"><path d="M 0.300781 36 L 526 36 L 526 225 L 0.300781 225 Z M 0.300781 36 " clip-rule="nonzero"/></clipPath><clipPath id="a511e1bfd7"><path d="M 650 178 L 965 178 L 965 823.09375 L 650 823.09375 Z M 650 178 " clip-rule="nonzero"/></clipPath><clipPath id="4793064e56"><path d="M 189 205 L 669 205 L 669 823.09375 L 189 823.09375 Z M 189 205 " clip-rule="nonzero"/></clipPath><clipPath id="bdf437389b"><rect x="0" width="1142" y="0" height="825"/></clipPath><clipPath id="219d33a045"><path d="M 530.828125 206.152344 L 968.828125 206.152344 L 968.828125 698.902344 L 530.828125 698.902344 Z M 530.828125 206.152344 " clip-rule="nonzero"/></clipPath></defs><g clip-path="url(#6f64c75f74)"><g transform="matrix(1, 0, 0, 1, 179, 431)"><g clip-path="url(#bdf437389b)"><path fill="#ffffff" d="M 928.621094 192.617188 L 658.464844 323.144531 L 504.089844 283.578125 L 504.089844 83.808594 Z M 660.417969 342.671875 L 982.035156 187.289062 L 495.488281 62.574219 L 485.664062 63.234375 L 485.664062 297.878906 L 660.417969 342.671875 " fill-opacity="1" fill-rule="nonzero"/><path fill="#ffffff" d="M 485.664062 86.617188 L 485.664062 278.859375 L 225.691406 212.214844 Z M 504.089844 302.601562 L 504.839844 57.195312 L 172.28125 217.554688 L 504.089844 302.601562 " fill-opacity="1" fill-rule="nonzero"/><path fill="#ffffff" d="M 646.273438 339.050781 L 567.398438 503.269531 L 110.152344 384.148438 L 203.417969 225.539062 Z M 577.441406 524.933594 L 672.617188 326.777344 L 200.273438 205.703125 L 193.367188 206.257812 L 81.90625 395.835938 L 577.441406 524.933594 " fill-opacity="1" fill-rule="nonzero"/><path fill="#ffffff" d="M 1045.949219 342.308594 L 759.320312 489.410156 L 672.332031 336.917969 L 952.117188 201.734375 Z M 752.046875 513.851562 L 1072.757812 349.273438 L 959.496094 179.59375 L 959.207031 179.160156 L 952.910156 180.890625 L 646.550781 328.90625 L 752.046875 513.851562 " fill-opacity="1" fill-rule="nonzero"/><g clip-path="url(#2f5bc32d64)"><path fill="#ffffff" d="M 1079.269531 135.449219 L 954.863281 180.324219 L 522.289062 69.445312 L 630.441406 19.613281 Z M 955.789062 199.582031 L 1141.695312 132.519531 L 628.691406 0.128906 L 467.457031 74.414062 L 955.789062 199.582031 " fill-opacity="1" fill-rule="nonzero"/></g><g clip-path="url(#3aac429fb2)"><path fill="#ffffff" d="M 464.019531 76.597656 L 197.535156 205.355469 L 61.804688 185.210938 L 327.21875 55.992188 Z M 200.445312 224.417969 L 525.726562 67.253906 L 324.308594 36.917969 L 0.210938 194.695312 L 200.445312 224.417969 " fill-opacity="1" fill-rule="nonzero"/></g><g clip-path="url(#a511e1bfd7)"><path fill="#ffffff" d="M 953.621094 180.550781 L 964.546875 178.164062 L 964.546875 220.351562 L 952.117188 201.742188 L 934.433594 210.28125 L 668.660156 338.6875 L 668.660156 798.320312 L 946.109375 658.042969 L 946.109375 393.550781 L 964.546875 384.085938 L 964.546875 669.367188 L 660.511719 823.09375 L 650.234375 817.332031 L 650.234375 327.125 L 953.621094 180.550781 " fill-opacity="1" fill-rule="nonzero"/></g><g clip-path="url(#4793064e56)"><path fill="#ffffff" d="M 208.203125 409.691406 L 208.203125 688.132812 L 650.234375 801.4375 L 650.234375 340.058594 L 222 230.300781 L 203.417969 225.539062 L 189.777344 248.734375 L 189.777344 206.0625 L 197.535156 205.355469 L 668.660156 325.757812 L 668.660156 818.976562 L 660.511719 823.09375 L 189.777344 702.441406 L 189.777344 404.890625 L 208.203125 409.691406 " fill-opacity="1" fill-rule="nonzero"/></g></g></g></g><g clip-path="url(#219d33a045)"><path fill="#e8b44a" d="M 740.171875 460.796875 L 740.171875 670.65625 C 739.1875 670.5 739.253906 670.332031 738.890625 670.160156 C 738.328125 669.886719 737.703125 669.605469 737.160156 669.292969 L 600.804688 590.417969 L 569.09375 572.035156 C 561.164062 567.445312 556.382812 558.902344 556.382812 549.738281 L 556.382812 355.078125 C 556.382812 354.890625 556.398438 354.707031 556.402344 354.523438 Z M 568.882812 332.785156 L 737.0625 235.527344 C 740.972656 233.261719 745.429688 232.070312 749.953125 232.070312 C 754.476562 232.070312 758.933594 233.261719 762.84375 235.527344 L 931.023438 332.785156 C 932.605469 333.699219 934.0625 334.777344 935.394531 335.984375 L 749.953125 443.226562 L 564.515625 335.984375 C 565.84375 334.777344 567.300781 333.699219 568.882812 332.785156 Z M 943.597656 354.523438 C 943.601562 354.707031 943.617188 354.890625 943.617188 355.078125 L 943.617188 549.738281 C 943.617188 558.902344 938.820312 567.445312 930.890625 572.035156 L 762.640625 669.292969 C 761.753906 669.804688 760.8125 670.257812 759.828125 670.65625 L 759.828125 460.796875 Z M 556.273438 593.988281 L 724.40625 691.246094 C 732.324219 695.828125 741.140625 698.117188 749.976562 698.117188 C 758.8125 698.117188 767.636719 695.828125 775.558594 691.246094 L 943.683594 593.988281 C 959.488281 584.855469 969.167969 567.992188 969.167969 549.738281 L 969.167969 355.078125 C 969.167969 336.828125 959.480469 319.960938 943.679688 310.828125 L 775.523438 213.570312 C 767.609375 208.992188 758.78125 206.703125 749.941406 206.703125 C 741.105469 206.703125 732.273438 208.992188 724.359375 213.570312 L 556.269531 310.828125 C 540.46875 319.960938 530.828125 336.828125 530.828125 355.078125 L 530.828125 549.738281 C 530.828125 567.992188 540.472656 584.855469 556.273438 593.988281 " fill-opacity="1" fill-rule="nonzero"/></g></svg>